# xmcd
#
# Track frame offsets: 
#        150
#        13290
#        26047
#        38420
#        52605
#        65052
#        77850
#        92142
#        105825
#        117270
#        130117
#        143160
#        153462
#        166590
#        178825
#        190425
#        204530
#        215750
#        229775
#        243560
#        255707
#        269055
#        279415
#        292780
#        304495
#
# Disc length: 4217 seconds
#
# Revision: 0
# Processed by: cddbd v1.5.1PL2 Copyright (c) Steve Scherf et al.
# Submitted via: ExactAudioCopy v0.95a5
#
DISCID=6a107719
DTITLE=Various Artist - Martin Scorsese Presents The Blues: A Musical Journey
DTITLE=Various Artist - Disc 3
DYEAR=2003
DGENRE=Blues
TTITLE0=Percy Mayfield - Please Send Me Someone To Love
TTITLE1=Jackie Brenston - Rocket 88
TTITLE2=Elmore James - Dust My Broom
TTITLE3=Rosco Gordon - No More Doggin'
TTITLE4=Little Walter - Juke
TTITLE5=Big Mama Thornton - Hound Dog
TTITLE6=Lowell Fulson - Reconsider Baby
TTITLE7=Guitar Slim - The Things That I Used To Do
TTITLE8=Professor Longhair - In The Night
TTITLE9=Muddy Waters - (I'm Your) Hoochie Coochie Man
TTITLE10=J.B. Lenoir - Eisenhower Blues
TTITLE11=Fats Domino - Blue Monday
TTITLE12=Ray Charles - Hard Times
TTITLE13=Smiley Lewis - I Hear You Knockin'
TTITLE14=Sonny Boy Williamson II - Don't Start Me To Talkin'
TTITLE15=Howlin' Wolf - Smokestack Lightnin'
TTITLE16=Bo Diddley - Who Do You Love
TTITLE17=Otis Rush - Can't Quit You Baby
TTITLE18=Slim Harpo - I'm A King Bee
TTITLE19=Chuck Berry - Johnny B. Goode
TTITLE20=Bobby "Blue" Bland - Farther Up The Road
TTITLE21=Buddy Guy - First Time I Met The Blues
TTITLE22=Jimmy Reed - Big Boss Man
TTITLE23=Freddie King - Hide Away
TTITLE24=Junior Parker - Drivin' Wheel
EXTD=
EXTT0=
EXTT1=
EXTT2=
EXTT3=
EXTT4=
EXTT5=
EXTT6=
EXTT7=
EXTT8=
EXTT9=
EXTT10=
EXTT11=
EXTT12=
EXTT13=
EXTT14=
EXTT15=
EXTT16=
EXTT17=
EXTT18=
EXTT19=
EXTT20=
EXTT21=
EXTT22=
EXTT23=
EXTT24=
PLAYORDER=
